<svg xmlns="http://www.w3.org/2000/svg" width="60" height="50" fill="none"><path fill="#fdc305" d="M51.2 19.05a22.3 22.3 0 0 0-6.88-9.13A21.5 21.5 0 0 0 22.7 6.97a22 22 0 0 0-9 6.97 22.8 22.8 0 0 0-3.04 22.04 22.3 22.3 0 0 0 6.78 9.22c3 2.42 6.57 4 10.36 4.56q-.76-2.75-1.44-5.98 1.94 1.29 4.07 2.23s.1 1.88.24 3.99q2.3.03 4.55-.41a2 2 0 0 1 0-.67c.25-1.63.94-4.57 1.07-6.46q1.5-1.42 2.48-3.24l-.05.39c-.47 3.71-1.45 7.68-2.05 8.78q-.3.55-.71 1c3.1-.74 6-2.16 8.5-4.15s4.55-4.53 6-7.42a22.7 22.7 0 0 0 .75-18.77m-1.25 3.3c-.38.38-1.15.64-1.28-.5a31 31 0 0 1-.16-1.93s-1.65-2.99-2.27-3.02c-.62-.04-4.99 3.02-6.14 4.36-1 1.12-1.2 1.05-1.2 3.03 0 1.49.19 7.12.09 11.43l-6.97 1.9a54 54 0 0 1-6.67 1.5l-.86-5.09h-.12l-2.2-11.49s-3.25-1.26-4.45-1.6a3.2 3.2 0 0 0-3.42.55 4.4 4.4 0 0 0-1.48 3.36q.27.6.4 1.27c.05.42-1.02.37-1.7.37-.69 0-.79-1.25-.25-2.73q.63-1.7 1.56-3.26.7-1.4 1.77-2.52s.12-.3 1.07-.21 6.22.37 6.22.37l.05-1.98q8.6-1.2 17.3-1.17v1.6a19 19 0 0 1 6.97-1.74.8.8 0 0 1 .65.34c.3.37 2.06 2.61 2.27 2.94q.86 1.24 1.57 2.61a6 6 0 0 1-.75 1.6z"/><path fill="#f06351" d="m48.28 17.02.86 1.12q.86 1.26 1.56 2.62a6 6 0 0 1-.73 1.55c-.38.38-1.16.63-1.28-.5-.13-1.14-.18-1.89-.18-1.89s-1.65-2.99-2.27-3.02c-.62-.04-4.99 3.02-6.14 4.36-1 1.12-1.2 1.05-1.2 3.03 0 1.3.15 5.8.11 9.8 1.55.17 3.83.6 4.51 1.63 0 0-.25-6.26 6.68-2.98 0 0 .24-8.54 9.8-6.35a37.5 37.5 0 0 0-11.72-9.37m-9-2.02q.05-7.27-1.2-14.43s-.13-1.13-.74-.2q-.77 1.66-1.03 3.48a59 59 0 0 0-10.96.3c-.7-2.4-1.9-3.49-2.47-3.2s-.65 2.86-.65 2.86l-.28 12.35q8.62-1.2 17.33-1.17"/><path fill="#e55645" d="M38.78 39.22c.11-.93.17-2.17.2-3.54l-6.96 1.9a54 54 0 0 1-6.67 1.54l.95 4.36q-.01.15.06.29 1.94 1.28 4.07 2.22 3.11-1.5 5.88-3.6v.05q1.48-1.42 2.47-3.22"/><path fill="#000" d="M27.37 12.26c-.05-.08.85.6 1.2.8q.52.31.52.52c0 .15-.22.3-.53.3-.3 0-.78-.1-.85-.23-.07-.12.51 0 .8 0h.25q-.8-.6-1.4-1.39m6.42.1s-.86 1.12-.93 1.17-.15.3.16.25q.53-.08 1.04-.24c.1-.06.06-.18-.1-.16s-.58.04-.85.1l.72-1.11s.03-.1-.04-.01m-2.68 5.33q.6-.29.93-.87c.24-.58 0-.8-.38-.88-.52-.1-1.05.01-1.5.3-.33.32-.29.64 0 .87q.44.36.94.58"/><path fill="#f06351" d="M30.79 18.79q-.15.3-.4.52-.37.3-.85.33c-.47.05-.94-.09-1.32-.38q-.25-.16-.45-.4a1 1 0 0 0-.31-.21s.64 3.59 2.2 4.16c1.55.58 1.84-.66 1.89-1 .05-.99-.2-1.97-.7-2.82 0-.26-.02-.09-.06-.2"/><path fill="#000" d="M29.33 19.78a3 3 0 0 1-2-1.24.13.13 0 0 1 0-.18.1.1 0 0 1 .13-.03l.03.03a2.8 2.8 0 0 0 1.8 1.14 1.8 1.8 0 0 0 1.41-.87l.12-.16.09.19s.32.66.85.7.9-.37 1.4-1.13l.07-.05q.06 0 .1.02.03.02.05.08 0 .05-.02.09-.85 1.29-1.62 1.23a1.3 1.3 0 0 1-.95-.64 2 2 0 0 1-1.46.82"/><path fill="#fdc305" d="M31 31.53a3.25 3.25 0 0 0 3.22-3.27 3.25 3.25 0 0 0-3.21-3.28 3.24 3.24 0 0 0-3.2 3.28c0 1.8 1.43 3.27 3.2 3.27"/><path fill="#111" d="m35.26 25.6-2.68 1.14.99-4.91-6.42 8.51 2.68-1.14-.98 4.92zm-6.32 3.34 3.56-4.72-.7 3.49 1.71-.72-3.58 4.73.7-3.5zm-1.2-1.29c.53 0 .96-.43.96-.97a.97.97 0 0 0-.96-.98.97.97 0 0 0-.96.98c0 .54.43.97.96.97m5.58 3.55c.37 0 .67-.31.67-.7 0-.37-.3-.68-.67-.68s-.68.3-.68.69.3.69.68.69m.82-1.9a.3.3 0 0 0 .3-.3.3.3 0 0 0-.3-.3.3.3 0 0 0-.3.3c0 .17.13.3.3.3"/><path fill="#f06351" d="M39.24 16.57q-2.32 2.13-4.36 4.55a28 28 0 0 1-4.54 4.27c-.19-.46-1.4-1.32-1.4-1.32s-2.68-1.88-4.44-3.35q-1.43-1.22-2.68-2.62L20.1 18a19.4 19.4 0 0 0 10.26 7.72c.73-.13 2.8-1.64 4.35-2.87a50 50 0 0 0 5.13-5.15q.65-.78.98-1.75c-.98.34-1.6.62-1.6.62m-17.04 5.97s-3.26-1.26-4.46-1.6a3.2 3.2 0 0 0-3.42.55 4.4 4.4 0 0 0-1.48 3.36q.27.6.41 1.27c.04.42-1.03.37-1.71.37s-.79-1.25-.25-2.73q.63-1.7 1.56-3.26C8.17 22.98 0 28.7 0 28.7a38 38 0 0 1 7 .21c4.5.46 4.28 4.07 4.28 4.07q2.38-.66 4.81-.96c1.82-.13 1.95 1.85 1.95 1.85l.45 3.36q1.04-1.14 2.27-2.06a5 5 0 0 1 3.74-1.13z"/></svg>