<svg xmlns="http://www.w3.org/2000/svg" width="33" height="38"><g clip-path="url(#a)"><path fill="#fdc305" d="M6.01 20.93v-2.28q9.95-1.39 19.98-1.34.02.9-.06 1.84a25 25 0 0 1 5.94-1.84 16.8 16.8 0 0 0-6.77-8.29A16.25 16.25 0 0 0 5.18 11.1a17 17 0 0 0-5 9.5zm20.97 3.55c-1.15 1.3-1.38 1.21-1.38 3.49v9.27a17 17 0 0 0 5.43-6.05A17 17 0 0 0 33 23.24q-.02-1.58-.32-3.13a33 33 0 0 0-5.7 4.37M6.3 25.99s-3.75-1.46-5.14-1.85A8 8 0 0 0 0 23.85c.1 2.92.96 5.76 2.46 8.24A16.6 16.6 0 0 0 8.6 38z"/><path fill="#f06351" d="M26.04 17.3A93 93 0 0 0 24.65.66s-.14-1.3-.88-.25q-.87 1.9-1.19 3.99a68 68 0 0 0-12.65.34C9.15 2.02 7.77.76 7.11 1S6.4 4.35 6.4 4.35L6.07 18.6a139 139 0 0 1 19.97-1.3"/><path fill="#000" d="M12.3 14.15c0-.1.98.68 1.39.92q.6.36.6.6c0 .17-.27.34-.62.34-.36 0-.9-.12-1-.27h1.23q-.91-.69-1.6-1.6m7.4.12-1.08 1.34c0 .06-.17.35.18.3q.6-.1 1.2-.29c.11 0 .08-.2-.1-.17s-.69.05-1 .11l.84-1.27s.07-.13-.04-.02m-3.11 6.15q.7-.32 1.08-1.01c.28-.66 0-.92-.44-1.01q-.92-.16-1.72.34c-.39.37-.34.73-.05 1.01q.53.41 1.13.67"/><path fill="#f06351" d="M16.2 21.67q-.18.35-.46.6a1.7 1.7 0 0 1-1 .4 2 2 0 0 1-1.45-.44q-.3-.18-.52-.45-.15-.16-.36-.26s.74 4.14 2.55 4.8 2.11-.76 2.17-1.14a6 6 0 0 0-.8-3.27c-.03-.3-.04-.1-.14-.24"/><path fill="#000" d="M14.57 22.82a3.4 3.4 0 0 1-2.35-1.53.14.14 0 0 1 .09-.13.14.14 0 0 1 .15.03c.5.7 1.25 1.17 2.09 1.31a2 2 0 0 0 1.61-1l.14-.2.1.21s.37.77 1 .8c.62.05 1.03-.4 1.59-1.28a.14.14 0 0 1 .2 0q.05.03.06.09t-.02.1c-.63 1.02-1.25 1.46-1.86 1.42a1.5 1.5 0 0 1-1.1-.77 2.3 2.3 0 0 1-1.7.95"/><path fill="#f06351" d="M25.99 19.12a59 59 0 0 0-5.02 5.24 32 32 0 0 1-5.24 4.94c-.22-.53-1.6-1.52-1.6-1.52s-3.1-2.17-5.14-3.86a34 34 0 0 1-3.1-3.04l-1.98-.1a22.4 22.4 0 0 0 11.89 8.88c.85-.14 3.24-1.87 5.02-3.29a58 58 0 0 0 5.88-5.95q.75-.9 1.13-2.02c-1.09.4-1.84.72-1.84.72"/></g><defs><clipPath id="a"><path fill="#fff" d="M0 0h33v38H0z"/></clipPath></defs></svg>