<svg xmlns="http://www.w3.org/2000/svg" width="70" height="59" fill="none"><path fill="#fdc305" d="M59.74 23.8a25.4 25.4 0 0 0-8.03-10.37A25.63 25.63 0 0 0 15.99 18a25.33 25.33 0 0 0 4.35 35.54 25.6 25.6 0 0 0 12.1 5.18c-.58-2.07-1.17-4.36-1.69-6.8q2.26 1.47 4.75 2.54s.12 2.14.28 4.53q2.68.04 5.32-.47a2 2 0 0 1 0-.75c.29-1.85 1.08-5.2 1.24-7.35a15 15 0 0 0 2.9-3.68l-.06.44c-.55 4.22-1.7 8.74-2.4 9.98q-.33.63-.83 1.15a25.7 25.7 0 0 0 16.93-13.16 25.3 25.3 0 0 0 .86-21.34m-1.46 3.77c-.44.42-1.35.71-1.5-.58s-.19-2.2-.19-2.2-1.93-3.4-2.64-3.43-5.82 3.44-7.17 4.96c-1.16 1.28-1.4 1.19-1.4 3.44 0 1.7.23 8.1.1 13l-8.13 2.15q-3.83 1.1-7.78 1.71l-1-5.78h-.14l-2.56-13.07s-3.8-1.42-5.2-1.81a3.8 3.8 0 0 0-3.99.62 5 5 0 0 0-1.72 3.82q.31.7.47 1.44c.05.48-1.2.43-2 .43-.79 0-.9-1.43-.28-3.1q.74-1.95 1.82-3.72a12 12 0 0 1 2.06-2.86s.14-.34 1.25-.24 7.26.42 7.26.42l.05-2.25q10.06-1.38 20.2-1.33v1.82a23 23 0 0 1 8.12-1.98.9.9 0 0 1 .77.38c.33.43 2.4 2.98 2.64 3.34q1 1.44 1.82 2.98a6 6 0 0 1-.86 1.83"/><path fill="#f06351" d="m56.33 21.5 1 1.27q1 1.44 1.82 2.98a6 6 0 0 1-.85 1.77c-.44.42-1.35.71-1.5-.58s-.2-2.14-.2-2.14-1.94-3.4-2.65-3.44c-.72-.04-5.82 3.44-7.17 4.96-1.16 1.28-1.4 1.19-1.4 3.44 0 1.49.18 6.6.14 11.14 1.8.2 4.46.7 5.25 1.86 0 0-.29-7.12 7.8-3.39 0 0 .28-9.71 11.43-7.22A44 44 0 0 0 56.33 21.5m-10.5-2.3c.04-5.5-.43-11-1.4-16.4 0 0-.15-1.3-.87-.24q-.9 1.9-1.2 3.97a71 71 0 0 0-12.79.33c-.82-2.72-2.21-3.96-2.88-3.64-.67.33-.75 3.26-.75 3.26l-.33 14.04q10.06-1.38 20.22-1.33"/><path fill="#e55645" d="M45.25 46.74c.13-1.06.2-2.47.24-4.03l-8.14 2.16a64 64 0 0 1-7.78 1.75l1.11 4.96q-.02.16.07.33 2.26 1.46 4.75 2.53a42 42 0 0 0 6.86-4.1v.06a15 15 0 0 0 2.89-3.66"/><path fill="#000" d="M31.93 16.09c-.05-.1 1 .67 1.4.91q.61.35.61.59c0 .17-.26.33-.62.33s-.91-.11-1-.25c-.07-.14.6 0 .94 0h.3a8 8 0 0 1-1.63-1.58m7.48.11s-1 1.27-1.09 1.33-.17.33.2.29q.6-.1 1.2-.28c.12-.06.08-.2-.11-.18s-.68.05-1 .1l.85-1.25s.03-.12-.05-.01m-3.13 6.06q.7-.31 1.08-1c.28-.65 0-.9-.43-.99-.6-.1-1.23.02-1.75.34-.39.37-.34.73 0 1q.5.4 1.1.65"/><path fill="#f06351" d="M35.92 23.5q-.18.35-.46.6-.44.35-1 .38c-.55.05-1.1-.1-1.54-.44a2 2 0 0 1-.52-.44 1 1 0 0 0-.36-.25s.74 4.08 2.56 4.73 2.16-.75 2.2-1.13a5.6 5.6 0 0 0-.81-3.21c0-.3-.02-.1-.07-.23"/><path fill="#000" d="M34.22 24.64a3.5 3.5 0 0 1-2.34-1.42.15.15 0 0 1 0-.2.1.1 0 0 1 .1-.04.1.1 0 0 1 .1.04 3.2 3.2 0 0 0 2.1 1.3 2.1 2.1 0 0 0 1.64-.99l.14-.19.1.22s.38.75 1 .8c.61.03 1.05-.42 1.62-1.29a.14.14 0 0 1 .24.16q-1 1.46-1.89 1.4a1.6 1.6 0 0 1-1.11-.72 2.3 2.3 0 0 1-1.7.93"/><path fill="#fdc305" d="M36.18 38a3.73 3.73 0 0 0 3.74-3.73 3.73 3.73 0 0 0-3.74-3.72 3.73 3.73 0 0 0-3.74 3.72A3.73 3.73 0 0 0 36.18 38"/><path fill="#111" d="M41.14 31.25 38 32.55l1.15-5.59-7.48 9.68 3.12-1.3-1.15 5.6zm-7.38 3.8 4.15-5.37-.8 3.97 1.99-.82-4.18 5.38.8-3.97zm-1.39-1.46a1.11 1.11 0 1 0-1.12-1.11c0 .6.5 1.1 1.12 1.1m6.5 4.03c.44 0 .79-.35.79-.78a.8.8 0 0 0-.79-.78.8.8 0 0 0-.79.78c0 .43.36.78.8.78m.95-2.15c.2 0 .35-.15.35-.35s-.16-.34-.35-.34c-.2 0-.35.15-.35.34s.16.35.35.35"/><path fill="#f06351" d="M45.78 20.99a57 57 0 0 0-5.08 5.17 32 32 0 0 1-5.3 4.86c-.22-.53-1.63-1.51-1.63-1.51s-3.13-2.13-5.19-3.8a32 32 0 0 1-3.13-2.98l-2-.11a22.6 22.6 0 0 0 11.98 8.76c.86-.13 3.27-1.85 5.08-3.25a57 57 0 0 0 5.98-5.86q.76-.9 1.14-1.98c-1.14.37-1.85.7-1.85.7"/><path fill="#fdc305" d="m65.07 3.47-8.44 9.37-1.22-1.98L63.54 0zM62.5 17.12l5.53-4.08-.77-3.7-5.4 4.77zm-2.72 31.85 6.12 3.16 3-2.33-6.67-2.72zM1.95 5.92 5 2.6l9.27 8.93-1.22 2.26zm5.41 10.23-4.69-3.1-2.4 3.83 5.15 2.38zm6.52 35.98-4.54 3.32 2.8 3.55 4-3.99z"/><path fill="#f06351" d="M25.87 27.77s-3.8-1.42-5.2-1.81a3.8 3.8 0 0 0-3.99.62 5 5 0 0 0-1.72 3.82q.31.7.47 1.44c.05.48-1.2.43-2 .43-.79 0-.9-1.43-.28-3.1q.74-1.95 1.82-3.72C9.53 28.27 0 34.78 0 34.78q4.1-.26 8.17.24c5.24.52 4.99 4.63 4.99 4.63q2.77-.76 5.62-1.1c2.11-.14 2.26 2.1 2.26 2.1l.53 3.83q1.2-1.3 2.64-2.34a6 6 0 0 1 4.37-1.3z"/></svg>